<?xml version="1.0" encoding="iso-8859-1"?>
<!-- Generator: Adobe Illustrator 19.0.0, SVG Export Plug-In . SVG Version: 6.00 Build 0)  -->
<svg width="20" height="20" version="1.1" id="Layer_1" xmlns="http://www.w3.org/2000/svg" xmlns:xlink="http://www.w3.org/1999/xlink" x="0px" y="0px"
	 viewBox="0 0 513.161 513.161" style="enable-background:new 0 0 513.161 513.161;" xml:space="preserve">
<path style="fill:#55C0EB;" d="M366.667,268.729L260,375.396c-34.133,34.133-89.6,34.133-122.667,0
	c-34.133-34.133-34.133-89.6,0-122.667L244,146.062l-78.933-78.933L58.4,173.796c-77.867,77.867-77.867,202.667,0,280.533l0,0
	c77.867,77.867,202.667,77.867,280.533,0L445.6,347.662L366.667,268.729z"/>
<path style="fill:#F3705A;" d="M445.6,347.662L338.933,454.329c-38.4,38.4-89.6,58.667-140.8,58.667S96.8,493.796,58.4,454.329
	l78.933-78.933c34.133,34.133,89.6,34.133,122.667,0l106.667-106.667L445.6,347.662z"/>
<g>
	
		<rect x="392.911" y="219.265" transform="matrix(0.7071 -0.7071 0.7071 0.7071 -65.2808 391.8607)" style="fill:#E8EAE9;" width="20" height="20"/>
	
		<rect x="190.942" y="17.484" transform="matrix(0.7071 -0.7071 0.7071 0.7071 18.2448 189.9464)" style="fill:#E8EAE9;" width="20" height="20"/>
</g>
<g>
	<path style="fill:#415A6B;" d="M248.267,91.662l-28.8-28.8c-2.133-2.133-2.133-5.333,0-7.467l0,0c2.133-2.133,5.333-2.133,7.467,0
		L256.8,83.129c2.133,2.133,2.133,5.333,0,7.467l0,0C254.667,93.796,251.467,93.796,248.267,91.662z"/>
	<path style="fill:#415A6B;" d="M458.4,284.729l-10.667-10.667l10.667-10.667c2.133-2.133,2.133-5.333,0-7.467
		c-2.133-2.133-5.333-2.133-7.467,0l-10.667,10.667L429.6,255.929c-2.133-2.133-5.333-2.133-7.467,0
		c-2.133,2.133-2.133,5.333,0,7.467l10.667,10.667l-10.667,10.667c-2.133,2.133-2.133,5.333,0,7.467
		c2.133,2.133,5.333,2.133,7.467,0l10.667-10.667l10.667,10.667c2.133,2.133,5.333,2.133,7.467,0
		C460.533,290.062,460.533,286.862,458.4,284.729z"/>
</g>
<g>
</g>
<g>
</g>
<g>
</g>
<g>
</g>
<g>
</g>
<g>
</g>
<g>
</g>
<g>
</g>
<g>
</g>
<g>
</g>
<g>
</g>
<g>
</g>
<g>
</g>
<g>
</g>
<g>
</g>
</svg>
